<?xml version="1.0" standalone="no"?>
<!DOCTYPE svg PUBLIC "-//W3C//DTD SVG 20010904//EN"
 "http://www.w3.org/TR/2001/REC-SVG-20010904/DTD/svg10.dtd">
<svg version="1.0" xmlns="http://www.w3.org/2000/svg"
 width="200.000000pt" height="200.000000pt" viewBox="0 0 200.000000 200.000000"
 preserveAspectRatio="xMidYMid meet">
<metadata>
Created by potrace 1.11, written by Peter Selinger 2001-2013
</metadata>
<g transform="translate(0.000000,200.000000) scale(0.100000,-0.100000)"
fill="#000000" stroke="none">
<path d="M204 1979 c-71 -27 -137 -88 -171 -157 l-28 -57 -2 -755 c-2 -731 -1
-757 18 -806 27 -71 88 -137 157 -171 l57 -28 765 0 c760 0 765 0 811 21 67
31 124 87 156 152 l28 57 2 755 c2 745 2 756 -19 810 -28 73 -105 150 -178
178 -54 20 -68 21 -800 21 -717 0 -747 -1 -796 -20z"/>
</g>
</svg>
